<?xml version="1.0" standalone="no"?>
<!DOCTYPE svg PUBLIC "-//W3C//DTD SVG 20010904//EN"
 "http://www.w3.org/TR/2001/REC-SVG-20010904/DTD/svg10.dtd">
<svg version="1.0" xmlns="http://www.w3.org/2000/svg"
 width="900.000000pt" height="900.000000pt" viewBox="0 0 900.000000 900.000000"
 preserveAspectRatio="xMidYMid meet">
<metadata>
Created by potrace 1.14, written by Peter Selinger 2001-2017
</metadata>
<g transform="translate(0.000000,900.000000) scale(0.100000,-0.100000)"
fill="#000000" stroke="none">
<path d="M2243 6426 l-28 -24 -3 -1096 -2 -1096 -444 -2 -444 -3 169 -245 c93
-134 167 -250 165 -256 -3 -7 -79 -121 -170 -253 l-165 -241 1545 0 1544 0 0
-245 0 -245 -379 0 c-385 0 -421 -3 -447 -38 -17 -21 -17 -72 -1 -93 30 -39
30 -39 921 -39 l864 0 31 26 c51 42 39 110 -23 134 -17 6 -170 10 -412 10
l-384 0 0 245 0 245 1550 0 1549 0 -112 163 c-62 89 -139 201 -171 249 l-59
88 87 127 c48 71 126 183 172 251 l85 122 -445 0 -446 0 -2 1095 -3 1094 -23
23 -23 23 -2234 3 -2234 2 -28 -24z m2402 -1192 c14 -15 25 -36 25 -48 0 -46
-179 -728 -196 -747 -26 -28 -88 -26 -119 6 -14 13 -25 34 -25 46 0 13 39 181
87 373 96 385 100 396 168 396 26 0 43 -7 60 -26z m-347 -162 c13 -10 25 -33
29 -54 5 -35 2 -41 -62 -108 l-68 -70 61 -64 c65 -68 81 -103 63 -142 -15 -33
-66 -55 -101 -42 -40 13 -230 210 -230 237 0 39 26 74 124 169 81 78 100 92
128 92 18 0 43 -8 56 -18z m588 -74 c106 -103 128 -136 119 -177 -7 -34 -203
-230 -231 -232 -42 -3 -60 3 -81 27 -41 45 -31 77 44 156 l68 70 -46 43 c-68
64 -89 94 -89 127 0 41 40 78 85 78 32 0 47 -11 131 -92z m1854 -1223 l0 -295
-65 0 c-51 0 -65 3 -65 15 0 19 -3 19 -42 -5 -66 -40 -160 -17 -204 49 -34 51
-48 136 -34 208 22 121 135 202 221 159 17 -9 34 -16 36 -16 1 0 3 41 3 90 l0
90 75 0 75 0 0 -295z m-4654 254 c114 -20 166 -77 166 -179 0 -116 -60 -176
-193 -194 l-79 -10 0 -83 0 -83 -75 0 -75 0 0 280 0 280 98 0 c54 0 125 -5
158 -11z m2330 3 c11 -7 114 -280 115 -304 0 -7 24 55 53 138 29 83 56 156 60
162 4 8 36 12 82 12 l74 0 0 -280 0 -280 -66 0 -67 0 5 165 4 165 -51 -143
-52 -142 -40 -3 c-40 -3 -41 -2 -56 40 -47 129 -97 260 -92 238 3 -14 9 -91
12 -172 l6 -148 -72 0 -71 0 0 273 c0 151 3 277 7 280 9 9 135 9 149 -1z
m1312 -11 c20 -10 45 -27 54 -37 16 -18 14 -21 -22 -64 l-39 -45 -29 18 c-92
53 -182 -15 -182 -138 0 -57 25 -119 55 -139 34 -22 92 -20 133 6 l35 21 19
-24 c56 -70 55 -69 19 -99 -89 -75 -260 -62 -342 27 -54 57 -64 90 -64 203 0
89 3 111 22 145 27 50 77 99 128 124 54 27 162 28 213 2z m-3167 -112 c130
-39 193 -199 128 -324 -63 -124 -222 -154 -326 -62 -76 67 -95 179 -47 275 27
55 64 87 123 108 45 16 74 17 122 3z m1130 -1 c51 -17 78 -39 100 -81 22 -42
35 -122 26 -160 -6 -23 -9 -24 -119 -26 -62 -1 -114 -4 -115 -5 -2 -2 -1 -10
3 -19 9 -26 76 -40 124 -27 48 13 49 12 74 -34 19 -36 19 -37 0 -51 -31 -23
-112 -38 -172 -32 -112 12 -182 95 -182 216 0 81 24 137 74 177 63 50 124 64
187 42z m498 3 c10 -7 12 -21 6 -56 -10 -70 -12 -73 -57 -71 -33 1 -45 -5 -69
-32 -29 -32 -29 -34 -29 -152 l0 -120 -75 0 -75 0 2 213 3 212 60 0 c58 0 60
-1 63 -27 4 -34 13 -35 38 -7 35 39 102 59 133 40z m1965 -20 c115 -56 152
-228 73 -334 -94 -124 -281 -113 -356 22 -30 54 -33 157 -7 212 53 113 176
155 290 100z m933 14 c76 -32 114 -93 115 -184 1 -70 -6 -83 -40 -81 -15 1
-67 2 -115 1 -84 -1 -87 -2 -77 -21 15 -29 80 -45 121 -31 17 6 37 11 44 11
11 0 61 -78 54 -84 -47 -41 -176 -58 -244 -32 -90 35 -145 138 -130 245 18
135 157 224 272 176z m-4168 -112 c11 -65 22 -131 24 -148 2 -31 10 -4 52 188
l17 77 58 0 c33 0 62 -5 66 -11 4 -7 21 -75 39 -153 l32 -141 7 65 c4 36 15
103 24 150 l17 85 69 3 c67 3 68 2 64 -20 -3 -13 -25 -110 -49 -215 l-44 -193
-87 0 -86 0 -16 68 c-8 37 -18 91 -22 120 -7 57 -24 71 -24 20 -1 -18 -9 -71
-18 -118 l-18 -85 -86 -3 -86 -3 -42 178 c-23 98 -45 192 -50 210 -4 17 -5 34
-2 37 3 3 35 6 72 6 l67 0 22 -117z m2136 4 c19 -62 35 -120 35 -129 0 -8 3
-18 7 -22 4 -3 19 44 35 106 40 165 35 158 113 158 41 0 65 -4 65 -11 0 -12
-107 -328 -143 -422 -27 -71 -70 -125 -113 -143 -37 -16 -130 -19 -138 -5 -4
5 -1 32 6 60 11 47 14 51 41 51 34 0 67 25 66 49 0 9 -35 104 -78 211 -43 107
-76 198 -74 203 2 4 35 7 73 7 l69 0 36 -113z"/>
<path d="M6496 3768 c-10 -14 -16 -44 -16 -78 0 -85 35 -119 91 -90 16 9 19
22 19 94 0 67 -3 85 -16 90 -31 12 -63 6 -78 -16z"/>
<path d="M1980 3840 l0 -70 40 0 c72 0 112 64 74 118 -12 18 -25 22 -65 22
l-49 0 0 -70z"/>
<path d="M2462 3773 c-26 -50 -20 -155 10 -175 23 -15 62 -4 76 22 17 33 11
148 -9 161 -24 15 -68 10 -77 -8z"/>
<path d="M3590 3780 c-32 -32 -24 -40 40 -40 51 0 60 3 60 18 0 43 -64 58
-100 22z"/>
<path d="M6016 3768 c-21 -30 -21 -126 0 -156 15 -22 38 -27 68 -16 25 10 40
101 24 149 -11 34 -18 40 -45 43 -23 2 -35 -3 -47 -20z"/>
<path d="M6977 3782 c-30 -33 -21 -42 43 -42 65 0 76 12 42 43 -24 22 -65 21
-85 -1z"/>
</g>
</svg>
